<svg id="visual" viewBox="0 0 1370 650" width="1370" height="650" xmlns="http://www.w3.org/2000/svg" xmlns:xlink="http://www.w3.org/1999/xlink" version="1.1"><rect x="0" y="0" width="1370" height="650" fill="#001220"></rect><path d="M0 392L32.7 401C65.3 410 130.7 428 195.8 432.3C261 436.7 326 427.3 391.2 421.5C456.3 415.7 521.7 413.3 587 423.5C652.3 433.7 717.7 456.3 783 457.2C848.3 458 913.7 437 978.8 425.2C1044 413.3 1109 410.7 1174.2 411.7C1239.3 412.7 1304.7 417.3 1337.3 419.7L1370 422L1370 651L1337.3 651C1304.7 651 1239.3 651 1174.2 651C1109 651 1044 651 978.8 651C913.7 651 848.3 651 783 651C717.7 651 652.3 651 587 651C521.7 651 456.3 651 391.2 651C326 651 261 651 195.8 651C130.7 651 65.3 651 32.7 651L0 651Z" fill="#fa7268"></path><path d="M0 435L32.7 437.7C65.3 440.3 130.7 445.7 195.8 453.3C261 461 326 471 391.2 474C456.3 477 521.7 473 587 472C652.3 471 717.7 473 783 476.5C848.3 480 913.7 485 978.8 476.8C1044 468.7 1109 447.3 1174.2 452.2C1239.3 457 1304.7 488 1337.3 503.5L1370 519L1370 651L1337.3 651C1304.7 651 1239.3 651 1174.2 651C1109 651 1044 651 978.8 651C913.7 651 848.3 651 783 651C717.7 651 652.3 651 587 651C521.7 651 456.3 651 391.2 651C326 651 261 651 195.8 651C130.7 651 65.3 651 32.7 651L0 651Z" fill="#ef5f67"></path><path d="M0 508L32.7 505.2C65.3 502.3 130.7 496.7 195.8 492.8C261 489 326 487 391.2 487.7C456.3 488.3 521.7 491.7 587 489.8C652.3 488 717.7 481 783 489.7C848.3 498.3 913.7 522.7 978.8 526.3C1044 530 1109 513 1174.2 500.8C1239.3 488.7 1304.7 481.3 1337.3 477.7L1370 474L1370 651L1337.3 651C1304.7 651 1239.3 651 1174.2 651C1109 651 1044 651 978.8 651C913.7 651 848.3 651 783 651C717.7 651 652.3 651 587 651C521.7 651 456.3 651 391.2 651C326 651 261 651 195.8 651C130.7 651 65.3 651 32.7 651L0 651Z" fill="#e34c67"></path><path d="M0 571L32.7 571.2C65.3 571.3 130.7 571.7 195.8 572.5C261 573.3 326 574.7 391.2 571C456.3 567.3 521.7 558.7 587 558.7C652.3 558.7 717.7 567.3 783 563.8C848.3 560.3 913.7 544.7 978.8 541C1044 537.3 1109 545.7 1174.2 546.3C1239.3 547 1304.7 540 1337.3 536.5L1370 533L1370 651L1337.3 651C1304.7 651 1239.3 651 1174.2 651C1109 651 1044 651 978.8 651C913.7 651 848.3 651 783 651C717.7 651 652.3 651 587 651C521.7 651 456.3 651 391.2 651C326 651 261 651 195.8 651C130.7 651 65.3 651 32.7 651L0 651Z" fill="#d53867"></path><path d="M0 583L32.7 583.2C65.3 583.3 130.7 583.7 195.8 582C261 580.3 326 576.7 391.2 582.5C456.3 588.3 521.7 603.7 587 607.3C652.3 611 717.7 603 783 600.2C848.3 597.3 913.7 599.7 978.8 602.7C1044 605.7 1109 609.3 1174.2 608.3C1239.3 607.3 1304.7 601.7 1337.3 598.8L1370 596L1370 651L1337.3 651C1304.7 651 1239.3 651 1174.2 651C1109 651 1044 651 978.8 651C913.7 651 848.3 651 783 651C717.7 651 652.3 651 587 651C521.7 651 456.3 651 391.2 651C326 651 261 651 195.8 651C130.7 651 65.3 651 32.7 651L0 651Z" fill="#c62368"></path></svg>